inDegrees=yes
name=ik_S41_A04_T01
DataType=double
version=3
OpenSimVersion=4.3-2021-08-27-4bc7ad9
endheader
time	pelvis_tilt	pelvis_list	pelvis_rotation	pelvis_tx	pelvis_ty	pelvis_tz	hip_flexion_r	hip_adduction_r	hip_rotation_r	knee_angle_r	knee_angle_r_beta	ankle_angle_r	subtalar_angle_r	mtp_angle_r	hip_flexion_l	hip_adduction_l	hip_rotation_l	knee_angle_l	knee_angle_l_beta	ankle_angle_l	subtalar_angle_l	mtp_angle_l	lumbar_extension	lumbar_bending	lumbar_rotation	arm_flex_r	arm_add_r	arm_rot_r	elbow_flex_r	pro_sup_r	wrist_flex_r	wrist_dev_r	arm_flex_l	arm_add_l	arm_rot_l	elbow_flex_l	pro_sup_l	wrist_flex_l	wrist_dev_l
4.819999999999985	-12.08906031654445	-4.515923582337181	29.48210392383995	0	0.9399999999999999	0	61.65977232494468	-2.166830965661583	-10.63063056517792	56.57223187454865	0.9873717114125576	0	0	0	66.45571294551644	13.35318252389268	-19.31397018886244	55.25199149734264	0.9643291699125409	0	0	0	0	0	0	9.262639909569071	-9.262639909569067	1.681258608222908	40.29836567090074	88.31874149023623	0	0	9.262639909569071	-9.262639909569067	1.681258608222908	40.29836567090074	88.31874148961563	0	0
4.839999999999985	-12.80680106005531	-4.940162538685788	29.43582768245035	0	0.9399999999999999	0	62.36799861234512	-2.140592950174883	-10.54954095050043	56.49613180274257	0.9860435145985375	0	0	0	67.25163263352668	13.38183701786271	-19.26311034440949	55.19201526854501	0.9632823872470927	0	0	0	0	0	0	9.265456769543027	-9.265456769543023	1.681741329020034	40.30656841767971	88.31825876946699	0	0	9.265456769543027	-9.265456769543023	1.681741329020034	40.30656841767971	88.31825876884653	0	0
4.859999999999984	-13.19560875406722	-5.153371167333438	29.41421461362221	0	0.9399999999999999	0	62.69277832377244	-2.044398155742859	-10.31595540231442	56.45430319656729	0.9853134676992586	0	0	0	67.45718236809537	13.47136480782554	-19.15647377201425	55.13523056199299	0.9622913071529813	0	0	0	0	0	0	9.268515439534577	-9.268515439534573	1.682270709046489	40.31564353561323	88.3177293894713	0	0	9.268515439534577	-9.268515439534573	1.682270709046489	40.31564353561323	88.31772938885088	0	0
4.879999999999984	-13.93589663131909	-5.605033766617169	29.31915946155284	0	0.9399999999999999	0	63.55070792069108	-1.959819386490291	-10.30055517478973	56.47527181631951	0.9856794391535336	0	0	0	68.035442681242	13.4523498684107	-18.89554469703427	55.01505480699325	0.9601938445471657	0	0	0	0	0	0	9.271928806575152	-9.271928806575149	1.682858645818391	40.32567825446521	88.31714145273349	0	0	9.271928806575152	-9.271928806575149	1.682858645818391	40.32567825446521	88.31714145211319	0	0
4.899999999999983	-14.72518281443979	-6.121977580458322	29.11762296110832	0	0.9399999999999999	0	64.22686207082877	-1.597723054586287	-10.21259431735488	56.37324618717783	0.9838987560035927	0	0	0	68.62262463612996	13.26287843581237	-18.68824446997014	54.85029718609834	0.9573182815947969	0	0	0	0	0	0	9.274817474479987	-9.274817474479983	1.683357917071886	40.33422491008786	88.31664218150895	0	0	9.274817474479987	-9.274817474479983	1.683357917071886	40.33422491008786	88.31664218088875	0	0
4.919999999999983	-15.52577206410321	-6.683574208490346	28.80058807942944	0	0.9399999999999999	0	64.7621609369246	-1.040866313484617	-10.38229973923647	56.12676054734207	0.9795967700295738	0	0	0	69.17993894287517	12.93982731409997	-18.44830576184113	54.66109837892939	0.9540161394688529	0	0	0	0	0	0	9.277660573994007	-9.277660573994003	1.683849492957149	40.34264180559199	88.3161506056522	0	0	9.277660573994007	-9.277660573994003	1.683849492957149	40.34264180559199	88.31615060503205	0	0
4.939999999999983	-16.38839507927134	-7.298375876029207	28.51463063158635	0	0.9399999999999999	0	65.40421379802966	-0.4546079844749542	-10.4110202751532	55.65448250590651	0.971353963221653	0	0	0	69.81869499220828	12.60969434934559	-17.96222741883867	54.50325013345071	0.9512611678667536	0	0	0	0	0	0	9.285225698844798	-9.285225698844794	1.685164813602818	40.36527040300453	88.31483528508284	0	0	9.285225698844798	-9.285225698844794	1.685164813602818	40.36527040300453	88.31483528446302	0	0
4.959999999999982	-17.65029879557574	-8.24713726762041	28.04561545315401	0	0.9399999999999999	0	66.55850984973586	0.1680077994530622	-10.41598587056701	55.43842159662637	0.9675829889698618	0	0	0	70.91618600707756	12.17620155805744	-17.48111454127424	54.28837298330522	0.9475108541094126	0	0	0	0	0	0	9.288278933592347	-9.288278933592343	1.685690999331761	40.37425061390427	88.31430909938436	0	0	9.288278933592347	-9.288278933592343	1.685690999331761	40.37425061390427	88.3143090987647	0	0
4.979999999999982	-18.41754838596287	-8.772116689042143	27.63621235696758	0	0.9399999999999999	0	67.04242939059537	0.8219991834760986	-10.30962184796985	55.24165184166924	0.9641487088775175	0	0	0	71.26316310934671	11.88219412199374	-17.46977434474084	54.00401269563796	0.9425478308277008	0	0	0	0	0	0	9.291542040643169	-9.291542040643165	1.686256394766286	40.38394537339287	88.31374370398267	0	0	9.291542040643169	-9.291542040643165	1.686256394766286	40.38394537339287	88.31374370336304	0	0
4.999999999999981	-19.34804816270593	-9.328182053861797	27.33284468389112	0	0.9399999999999999	0	67.28631316552128	1.256179460789688	-10.29463577214089	54.34193957968923	0.9484457675854006	0	0	0	71.61514120132296	11.7578981280274	-17.44040452812044	53.30868536876796	0.9304120795947285	0	0	0	0	0	0	9.303577573525159	-9.303577573525155	1.688352254917653	40.42003143845385	88.31164784395297	0	0	9.303577573525159	-9.303577573525155	1.688352254917653	40.42003143845385	88.31164784333373	0	0
5.019999999999981	-19.35727128316598	-9.320931997231476	27.3159336510759	0	0.9399999999999999	0	66.86277772968756	1.12550726379245	-10.37083166682426	54.26053434360922	0.947024978187441	0	0	0	70.96753383929193	11.77985197432125	-17.10475891702772	52.86394647263828	0.9226499215455805	0	0	0	0	0	0	9.313380849017591	-9.313380849017587	1.690059189766393	40.44940679680116	88.30994090920328	0	0	9.313380849017591	-9.313380849017587	1.690059189766393	40.44940679680116	88.30994090858442	0	0
5.03999999999998	-20.58550814791216	-10.13760899757605	27.10850834647356	0	0.9399999999999999	0	67.94013490244755	0.8743594571765481	-10.43744115540395	54.05639113058648	0.9434620069745941	0	0	0	71.7326482819124	11.77266054840467	-16.47779470788068	52.59268013804017	0.9179154308570269	0	0	0	0	0	0	9.316494179888714	-9.316494179888711	1.690596995039767	40.45859594439759	88.3094031039611	0	0	9.316494179888714	-9.316494179888711	1.690596995039767	40.45859594439759	88.30940310334231	0	0
5.05999999999998	-21.40265173845132	-10.48986689646694	26.97607190481984	0	0.9399999999999999	0	68.36501250622139	0.5320176276910674	-10.27437930351447	53.7888612512335	0.9387927297324213	0	0	0	71.04815024956791	11.92272426875976	-15.71344555962926	51.1938074320006	0.8935004963203536	0	0	0	0	0	0	9.326777879031392	-9.326777879031388	1.69238634603962	40.48935786922448	88.30761375306511	0	0	9.326777879031392	-9.326777879031388	1.69238634603962	40.48935786922448	88.30761375244658	0	0
5.07999999999998	-22.27735547514923	-10.85852389990621	26.8573875682823	0	0.9399999999999999	0	68.78419262144058	0.132366819588999	-10.31086928463962	53.6260690279003	0.9359514694386151	0	0	0	71.2215577484107	12.02329909265391	-15.13543895800469	50.88422385322033	0.8880972435605307	0	0	0	0	0	0	9.330061526300668	-9.330061526300666	1.692955409014968	40.49910450829923	88.30704469012277	0	0	9.330061526300668	-9.330061526300666	1.692955409014968	40.49910450829923	88.30704468950434	0	0
5.099999999999979	-22.54531572536728	-10.98065514857149	26.80987358348043	0	0.9399999999999999	0	68.66152417614589	-0.2665945635542555	-10.42603614716483	53.35489232710459	0.9312185431550344	0	0	0	70.54528361466693	12.08394843183566	-14.44110266651077	50.25297434029957	0.8770798611584529	0	0	0	0	0	0	9.337463777007438	-9.337463777007434	1.694243276345713	40.52123420261261	88.3057568228668	0	0	9.337463777007438	-9.337463777007434	1.694243276345713	40.52123420261261	88.30575682224855	0	0
5.119999999999979	-22.8605194241364	-11.13625626372246	26.71198198043288	0	0.9399999999999999	0	68.58161978798844	-0.7277892619158957	-10.63077655173272	53.25716426031216	0.9295128666178976	0	0	0	70.86105824846631	12.02480258493193	-14.38449408394827	50.31580419014094	0.8781764489067183	0	0	0	0	0	0	9.340205642177342	-9.340205642177338	1.694718942277952	40.52938551674691	88.30528115696214	0	0	9.340205642177342	-9.340205642177338	1.694718942277952	40.52938551674691	88.30528115634399	0	0
5.139999999999978	-23.21854921797199	-11.31407593283891	26.529685970545	0	0.9399999999999999	0	68.47303062590386	-1.157381868636451	-10.72382067753522	52.9726015241191	0.9245463099428447	0	0	0	70.33566329831972	11.91952776313123	-13.93298120280749	49.7730529534755	0.8687036528076355	0	0	0	0	0	0	9.349461411650822	-9.349461411650818	1.696328213428615	40.55700462418267	88.30367188590485	0	0	9.349461411650822	-9.349461411650818	1.696328213428615	40.55700462418267	88.30367188528696	0	0
5.159999999999978	-23.61305641431584	-11.47052938825733	26.32427277514903	0	0.9399999999999999	0	68.31223420030739	-1.522553160756478	-10.59870883757777	52.63398509502841	0.9186363383538662	0	0	0	69.82176215056882	11.73791012083386	-13.6682827987168	49.01850737920457	0.8555343481802563	0	0	0	0	0	0	9.358809381024498	-9.358809381024495	1.697952541223068	40.58485906811058	88.30204755820462	0	0	9.358809381024498	-9.358809381024495	1.697952541223068	40.58485906811058	88.30204755758703	0	0
5.179999999999978	-23.74503585097559	-11.52553145379367	26.17112069772148	0	0.9399999999999999	0	68.45102521583404	-1.38969724521975	-10.5546621845683	52.78383255250832	0.9212516698626328	0	0	0	69.0562032661078	11.47958294396016	-13.48382865922595	48.25554928360601	0.8422182173573158	0	0	0	0	0	0	9.368071568274635	-9.368071568274631	1.69956094576074	40.61242358491846	88.30043915376025	0	0	9.368071568274635	-9.368071568274631	1.69956094576074	40.61242358491846	88.30043915314295	0	0
5.199999999999977	-23.74681945030542	-11.5544068457667	26.05205450583518	0	0.9399999999999999	0	67.67902266099941	-1.64424813256812	-10.51702443553483	52.22236834366666	0.9114522707862408	0	0	0	68.1366271051961	11.20735416315525	-13.31680881812993	47.50126123007015	0.8290534073146558	0	0	0	0	0	0	9.376025007084683	-9.37602500708468	1.700942669836236	40.63610540779692	88.29905742976494	0	0	9.376025007084683	-9.37602500708468	1.700942669836236	40.63610540779692	88.29905742914788	0	0
5.219999999999977	-23.81728259216419	-11.62243739938305	25.95251877091328	0	0.9399999999999999	0	66.94123476625664	-1.883562909520789	-10.3518074227565	51.56579072650656	0.8999928295718982	0	0	0	67.21671832231455	10.96256419078898	-13.21443515122784	46.5149191460164	0.8118384903969352	0	0	0	0	0	0	9.387321370494904	-9.387321370494901	1.702906064800601	40.66975866608521	88.29709403491454	0	0	9.387321370494904	-9.387321370494901	1.702906064800601	40.66975866608521	88.29709403429777	0	0
5.239999999999976	-23.83037142222871	-11.70138728430427	25.93954565940471	0	0.9399999999999999	0	65.33284526065525	-2.389311794207514	-10.03268821230742	50.09587131440117	0.8743378960916799	0	0	0	66.2431227544273	10.70212251239459	-13.01237868668668	45.50898749957307	0.7942816711164916	0	0	0	0	0	0	9.401904869766765	-9.401904869766762	1.705439046498184	40.71312066348173	88.29456105336391	0	0	9.401904869766765	-9.401904869766762	1.705439046498184	40.71312066348173	88.29456105274754	0	0
5.259999999999976	-23.77998147165322	-11.71345609760487	25.94933656595147	0	0.9399999999999999	0	64.45778685310879	-2.514716085777611	-9.858036151092847	49.37813104608281	0.8618109652353768	0	0	0	65.15161115976774	10.44594570858935	-12.87994913976141	44.48011618616541	0.7763244791182095	0	0	0	0	0	0	9.413241146727689	-9.413241146727685	1.707408285766914	40.74682873914803	88.2925918142094	0	0	9.413241146727689	-9.413241146727685	1.707408285766914	40.74682873914803	88.29259181359343	0	0
5.279999999999975	-23.78114642247132	-11.71399649099819	25.94994349498128	0	0.9399999999999999	0	63.58301048214624	-2.650493374523155	-9.689817355731071	48.56367928809244	0.8475961004597888	0	0	0	64.1078876531099	10.16262905405355	-12.81042614612941	43.32440595054373	0.7561535303076118	0	0	0	0	0	0	9.42421365790115	-9.424213657901149	1.709313752504029	40.77942455126833	88.29068634758276	0	0	9.42421365790115	-9.424213657901149	1.709313752504029	40.77942455126833	88.29068634696728	0	0
